<svg width="#f00" height="#ff0" viewBox="0 0 20 20" fill="none" xmlns="http://www.w3.org/2000/svg">
  <g clip-path="url(#clip0_2562_1749)">
    <path d="M22.0417 15.3333C21.8933 15.3333 21.747 15.2989 21.6143 15.2327L19.6976 14.2744C19.4701 14.1608 19.2971 13.9614 19.2166 13.7203C19.136 13.4791 19.1546 13.2158 19.2683 12.9883C19.3819 12.7608 19.5812 12.5878 19.8224 12.5073C20.0636 12.4268 20.3269 12.4453 20.5543 12.559L22.471 13.5173C22.6645 13.6137 22.8196 13.7727 22.9113 13.9684C23.003 14.1642 23.0259 14.3851 22.9761 14.5955C22.9264 14.8058 22.807 14.9932 22.6374 15.1271C22.4678 15.2611 22.2578 15.3338 22.0417 15.3333ZM20.5534 6.6125L22.47 5.65417C22.6975 5.54055 22.8706 5.34123 22.9511 5.10004C23.0316 4.85886 23.013 4.59556 22.8994 4.36808C22.7858 4.1406 22.5864 3.96758 22.3453 3.88706C22.1041 3.80654 21.8408 3.82514 21.6133 3.93875L19.6966 4.89708C19.4691 5.0107 19.2961 5.21002 19.2156 5.45121C19.1351 5.69239 19.1537 5.95569 19.2673 6.18317C19.3809 6.41065 19.5802 6.58367 19.8214 6.66419C20.0626 6.74471 20.3259 6.72611 20.5534 6.6125ZM23 9.58333C23 9.32917 22.899 9.08541 22.7193 8.90569C22.5396 8.72597 22.2958 8.625 22.0417 8.625H20.125C19.8708 8.625 19.6271 8.72597 19.4474 8.90569C19.2676 9.08541 19.1667 9.32917 19.1667 9.58333C19.1667 9.8375 19.2676 10.0813 19.4474 10.261C19.6271 10.4407 19.8708 10.5417 20.125 10.5417H22.0417C22.2958 10.5417 22.5396 10.4407 22.7193 10.261C22.899 10.0813 23 9.8375 23 9.58333ZM17.25 18.2083V0.958333C17.25 0.704167 17.149 0.460412 16.9693 0.280689C16.7896 0.100967 16.5458 0 16.2917 0C16.0375 0 15.7937 0.100967 15.614 0.280689C15.4343 0.460412 15.3333 0.704167 15.3333 0.958333C15.3333 3.78446 12.858 4.79167 10.5417 4.79167H3.83333C2.81667 4.79167 1.84165 5.19553 1.12276 5.91442C0.403868 6.63331 0 7.60834 0 8.625L0 10.5417C0 11.5583 0.403868 12.5334 1.12276 13.2522C1.84165 13.9711 2.81667 14.375 3.83333 14.375H10.5417C12.858 14.375 15.3333 15.3822 15.3333 18.2083C15.3333 18.4625 15.4343 18.7063 15.614 18.886C15.7937 19.0657 16.0375 19.1667 16.2917 19.1667C16.5458 19.1667 16.7896 19.0657 16.9693 18.886C17.149 18.7063 17.25 18.4625 17.25 18.2083ZM7.84492 16.2917H3.83333C3.38715 16.2899 2.94268 16.2362 2.50892 16.1316L4.90475 21.481C5.10596 21.9332 5.43393 22.3173 5.84894 22.5869C6.26394 22.8565 6.7482 23 7.24308 23C7.63682 22.9995 8.02416 22.9004 8.36981 22.7119C8.71546 22.5233 9.00843 22.2513 9.22202 21.9205C9.43561 21.5897 9.56302 21.2108 9.59265 20.8182C9.62229 20.4255 9.55319 20.0317 9.39167 19.6727L7.84492 16.2917Z" fill="#9B84F8"/>
    </g>
    <defs>
    <clipPath id="clip0_2562_1749">
      <rect width="23" height="23" fill="white"/>
    </clipPath>
  </defs>
</svg>
