<svg width="#f00" height="#ff0" viewBox="0 0 20 20" fill="none"
    xmlns="http://www.w3.org/2000/svg">
    <path d="M1.925 14.3268L6.50833 18.9102C5.86747 19.1712 5.16386 19.2373 4.4856 19.1003C3.80733 18.9633 3.18456 18.6292 2.69527 18.1399C2.20598 17.6506 1.87191 17.0278 1.73489 16.3496C1.59788 15.6713 1.66401 14.9677 1.925 14.3268ZM6.10583 1.65017C6.32243 1.60597 6.51259 1.47753 6.63449 1.29312C6.75639 1.10871 6.80004 0.88343 6.75583 0.666837C6.71163 0.450243 6.5832 0.26008 6.39878 0.138182C6.21437 0.016283 5.98909 -0.0273661 5.7725 0.0168366C3.53779 0.408333 1.53668 1.63779 0.177499 3.45434C0.0541476 3.63232 0.00492271 3.85133 0.0402509 4.06498C0.0755791 4.27862 0.192685 4.47013 0.366766 4.59893C0.540846 4.72773 0.758227 4.78371 0.972865 4.75501C1.1875 4.72631 1.38254 4.61518 1.51667 4.44517C2.62846 2.95628 4.27278 1.95482 6.10583 1.65017ZM19.3333 13.3527C19.1175 13.3053 18.8917 13.3456 18.7056 13.4647C18.5195 13.5838 18.3883 13.7719 18.3408 13.9877C18.0242 15.7858 17.0361 17.3965 15.5767 18.4935C15.3981 18.6239 15.2786 18.8199 15.2446 19.0384C15.2105 19.2569 15.2646 19.4799 15.395 19.6585C15.5254 19.8371 15.7214 19.9565 15.9399 19.9906C16.1584 20.0247 16.3814 19.9706 16.56 19.8402C18.3435 18.4997 19.5596 16.5393 19.9683 14.346C19.9919 14.2391 19.9942 14.1286 19.975 14.0208C19.9559 13.913 19.9156 13.81 19.8567 13.7178C19.7977 13.6255 19.7211 13.5458 19.6313 13.4831C19.5415 13.4205 19.4403 13.3762 19.3333 13.3527ZM16.8058 4.37267L18.0892 3.08934C18.1688 3.01246 18.2322 2.92051 18.2759 2.81884C18.3196 2.71717 18.3426 2.60782 18.3435 2.49717C18.3445 2.38652 18.3234 2.27679 18.2815 2.17438C18.2396 2.07196 18.1777 1.97892 18.0995 1.90067C18.0213 1.82243 17.9282 1.76055 17.8258 1.71865C17.7234 1.67675 17.6136 1.65567 17.503 1.65663C17.3923 1.65759 17.283 1.68058 17.1813 1.72425C17.0797 1.76793 16.9877 1.83141 16.9108 1.911L15.6258 3.196C14.4753 2.28176 13.0678 1.75009 11.6001 1.67538C10.1325 1.60067 8.67824 1.98666 7.44083 2.77934L2.8575 5.61267C2.32004 5.94483 1.86469 6.39427 1.52556 6.92735C1.18642 7.46043 0.97228 8.06333 0.899175 8.6909C0.826069 9.31846 0.895892 9.95444 1.10341 10.5512C1.31094 11.148 1.65078 11.69 2.0975 12.1368L7.89667 17.936C8.34429 18.3838 8.88759 18.7242 9.48574 18.9317C10.0839 19.1393 10.7213 19.2085 11.35 19.1343C11.9788 19.06 12.5825 18.8441 13.1158 18.5029C13.6492 18.1617 14.0982 17.7041 14.4292 17.1643L17.4292 12.2677C18.1187 11.0379 18.4276 9.63104 18.3166 8.2255C18.2057 6.81995 17.6798 5.47901 16.8058 4.37267Z" fill="#000"/>
</svg>
