<svg width="#f00" height="#ff0" viewBox="0 0 20 20" fill="none"
    xmlns="http://www.w3.org/2000/svg">
    <path d="M11.225 15.8083C11.1636 15.8655 11.1143 15.9345 11.0802 16.0112C11.046 16.0879 11.0277 16.1706 11.0262 16.2545C11.0247 16.3385 11.0401 16.4218 11.0716 16.4996C11.103 16.5775 11.1498 16.6482 11.2091 16.7075C11.2685 16.7669 11.3392 16.8136 11.417 16.8451C11.4948 16.8765 11.5782 16.8919 11.6621 16.8905C11.746 16.889 11.8288 16.8706 11.9054 16.8365C11.9821 16.8023 12.0511 16.753 12.1083 16.6916L17.3167 11.4833C17.4337 11.3661 17.4995 11.2073 17.4995 11.0416C17.4995 10.876 17.4337 10.7172 17.3167 10.6L12.1083 5.39164C12.0511 5.33023 11.9821 5.28098 11.9054 5.24682C11.8288 5.21266 11.746 5.1943 11.6621 5.19281C11.5782 5.19133 11.4948 5.20677 11.417 5.23821C11.3392 5.26964 11.2685 5.31643 11.2091 5.37578C11.1498 5.43512 11.103 5.50582 11.0716 5.58364C11.0401 5.66147 11.0247 5.74482 11.0262 5.82874C11.0277 5.91266 11.046 5.99542 11.0802 6.07209C11.1143 6.14876 11.1636 6.21776 11.225 6.27497L15.3667 10.4166L5.83333 10.4166C5.47775 10.4169 5.12561 10.347 4.79703 10.2111C4.46845 10.0752 4.16987 9.87582 3.91835 9.62447C3.66684 9.37311 3.46732 9.07465 3.33119 8.74616C3.19507 8.41766 3.125 8.06556 3.125 7.70997V3.95831C3.125 3.79255 3.05915 3.63357 2.94194 3.51636C2.82473 3.39915 2.66576 3.33331 2.5 3.33331C2.33424 3.33331 2.17527 3.39915 2.05806 3.51636C1.94085 3.63357 1.875 3.79255 1.875 3.95831V7.70997C1.875 8.22971 1.9774 8.74436 2.17634 9.22451C2.37529 9.70466 2.66688 10.1409 3.03447 10.5083C3.40206 10.8758 3.83843 11.1672 4.31867 11.3659C4.79891 11.5647 5.3136 11.6669 5.83333 11.6666L15.3667 11.6666L11.225 15.8083Z" fill="#000"/>
</svg>
