<svg width="#f00" height="#ff0" viewBox="0 0 20 20" fill="none"
    xmlns="http://www.w3.org/2000/svg">
    <path d="M16.6575 19.9971C16.3548 19.9963 16.0553 19.9343 15.7762 19.8149C15.4972 19.6955 15.2442 19.521 15.0318 19.3014L9.99999 14.2071L4.96824 19.3047C4.64508 19.6386 4.23065 19.8656 3.77895 19.9561C3.32726 20.0466 2.85927 19.9964 2.43599 19.8121C2.00851 19.637 1.64281 19.3347 1.38665 18.9447C1.13049 18.5546 0.995779 18.095 1.0001 17.6258V4.16606C1.0001 3.06115 1.4311 2.0015 2.19829 1.22021C2.96547 0.438923 4.006 0 5.09096 0L14.909 0C15.4462 0 15.9782 0.107758 16.4745 0.317123C16.9709 0.526487 17.4218 0.833357 17.8017 1.22021C18.1816 1.60707 18.4829 2.06633 18.6885 2.57178C18.8941 3.07723 18.9999 3.61897 18.9999 4.16606V17.6258C19.0045 18.0946 18.8702 18.554 18.6147 18.944C18.3591 19.334 17.9941 19.6365 17.5673 19.8121C17.2791 19.9349 16.9698 19.9977 16.6575 19.9971ZM5.09096 1.66643C4.43998 1.66643 3.81567 1.92978 3.35536 2.39855C2.89505 2.86733 2.63645 3.50312 2.63645 4.16606V17.6258C2.63615 17.7646 2.67627 17.9004 2.75173 18.0161C2.82719 18.1317 2.93461 18.222 3.06041 18.2755C3.18622 18.329 3.32478 18.3433 3.45858 18.3166C3.59238 18.29 3.71542 18.2235 3.81216 18.1257L9.42727 12.4424C9.58057 12.2872 9.78794 12.2001 10.0041 12.2001C10.2202 12.2001 10.4276 12.2872 10.5809 12.4424L16.1895 18.124C16.2862 18.2219 16.4092 18.2883 16.543 18.315C16.6768 18.3416 16.8154 18.3273 16.9412 18.2738C17.067 18.2203 17.1744 18.13 17.2499 18.0144C17.3254 17.8988 17.3655 17.763 17.3652 17.6241V4.16606C17.3652 3.50312 17.1066 2.86733 16.6463 2.39855C16.186 1.92978 15.5616 1.66643 14.9107 1.66643H5.09096Z" fill="#000"/>
</svg>
