<svg width="#f00" height="#ff0" viewBox="0 0 20 20" fill="none"
    xmlns="http://www.w3.org/2000/svg">
    <path d="M14.6875 7.74289V12.4032C14.6875 12.7254 14.4547 12.9858 14.1667 12.9858H5.83333C5.54531 12.9858 5.3125 12.7254 5.3125 12.4032V7.74289C5.3125 4.85173 7.4151 2.5 10 2.5C12.5849 2.5 14.6875 4.85173 14.6875 7.74289ZM10.5208 5.99526C10.5208 5.67311 10.288 5.41272 10 5.41272C8.85104 5.41272 7.91667 6.4578 7.91667 7.74289C7.91667 8.06504 8.14948 8.32544 8.4375 8.32544C8.72552 8.32544 8.95833 8.06504 8.95833 7.74289C8.95833 7.10035 9.42552 6.5778 10 6.5778C10.288 6.5778 10.5208 6.31741 10.5208 5.99526ZM14.6875 14.1509H5.3125C4.44948 14.1509 3.75 14.9332 3.75 15.8985C3.75 16.2201 3.98333 16.481 4.27083 16.481H15.7292C16.0167 16.481 16.25 16.2201 16.25 15.8985C16.25 14.9332 15.5505 14.1509 14.6875 14.1509Z" fill="#000"/>
</svg>
