<svg width="10" height="12" viewBox="0 0 10 12" fill="none" xmlns="http://www.w3.org/2000/svg">
  <path d="M9.85917 3.77465C9.26762 1.17183 6.99719 0 5.00283 0C5.00283 0 5.00283 0 4.99719 0C3.00844 0 0.732383 1.1662 0.140833 3.76902C-0.518323 6.67606 1.26196 9.13804 2.87323 10.6873C3.47041 11.262 4.23663 11.5493 5.00283 11.5493C5.76902 11.5493 6.53522 11.262 7.12677 10.6873C8.73804 9.13804 10.5183 6.6817 9.85917 3.77465ZM5.00283 6.59719C4.02254 6.59719 3.22816 5.80282 3.22816 4.82254C3.22816 3.84226 4.02254 3.04789 5.00283 3.04789C5.98311 3.04789 6.77747 3.84226 6.77747 4.82254C6.77747 5.80282 5.98311 6.59719 5.00283 6.59719Z" fill="#9B84F8"/>
</svg>
