<svg width="#f00" height="#ff0" viewBox="0 0 20 20" fill="none"
    xmlns="http://www.w3.org/2000/svg">
    <path d="M14.5832 0.76416C13.6448 0.778756 12.7269 1.0407 11.9222 1.52355C11.1174 2.0064 10.4544 2.69305 9.99988 3.51416C9.54542 2.69305 8.88233 2.0064 8.07758 1.52355C7.27283 1.0407 6.35493 0.778756 5.41655 0.76416C3.92067 0.829152 2.51131 1.48354 1.49637 2.58435C0.481433 3.68517 -0.0565749 5.14293 -0.000116138 6.63916C-0.000116138 12.285 9.12988 18.8058 9.51822 19.0825L9.99988 19.4233L10.4816 19.0825C10.8699 18.8075 19.9999 12.285 19.9999 6.63916C20.0563 5.14293 19.5183 3.68517 18.5034 2.58435C17.4885 1.48354 16.0791 0.829152 14.5832 0.76416ZM9.99988 17.3717C7.28905 15.3467 1.66655 10.3717 1.66655 6.63916C1.60958 5.58476 1.97186 4.5506 2.67435 3.76224C3.37685 2.97389 4.36258 2.49529 5.41655 2.43083C6.47052 2.49529 7.45625 2.97389 8.15875 3.76224C8.86125 4.5506 9.22352 5.58476 9.16655 6.63916H10.8332C10.7763 5.58476 11.1385 4.5506 11.841 3.76224C12.5435 2.97389 13.5292 2.49529 14.5832 2.43083C15.6372 2.49529 16.6229 2.97389 17.3254 3.76224C18.0279 4.5506 18.3902 5.58476 18.3332 6.63916C18.3332 10.3733 12.7107 15.3467 9.99988 17.3717Z" fill="#000"/>
</svg>
