<svg width="#f00" height="#ff0" viewBox="0 0 20 20" fill="none" xmlns="http://www.w3.org/2000/svg">
  <g clip-path="url(#clip0_2555_1695)">
    <path d="M18.8553 2.64297C17.641 1.63256 16.2307 0.884585 14.7131 0.446183C13.1956 0.00778137 11.6036 -0.111545 10.0376 0.0957214C7.14065 0.472076 4.49548 1.93684 2.63923 4.1926C0.78297 6.44836 -0.145228 9.32602 0.0431048 12.2413C0.231437 15.1565 1.52218 17.8908 3.65325 19.889C5.78433 21.8872 8.59598 22.9994 11.5173 22.9999H18.2084C19.4787 22.9984 20.6966 22.493 21.5949 21.5948C22.4932 20.6965 22.9985 19.4786 23.0001 18.2082V10.8377V10.7773C22.8986 9.21085 22.4787 7.68156 21.7661 6.28293C21.0534 4.8843 20.063 3.64573 18.8553 2.64297ZM7.66672 6.70822H11.5001C11.7542 6.70822 11.998 6.80919 12.1777 6.98891C12.3574 7.16863 12.4584 7.41239 12.4584 7.66655C12.4584 7.92072 12.3574 8.16448 12.1777 8.3442C11.998 8.52392 11.7542 8.62489 11.5001 8.62489H7.66672C7.41255 8.62489 7.1688 8.52392 6.98908 8.3442C6.80935 8.16448 6.70839 7.92072 6.70839 7.66655C6.70839 7.41239 6.80935 7.16863 6.98908 6.98891C7.1688 6.80919 7.41255 6.70822 7.66672 6.70822ZM15.3334 16.2916H7.66672C7.41255 16.2916 7.1688 16.1906 6.98908 16.0109C6.80935 15.8311 6.70839 15.5874 6.70839 15.3332C6.70839 15.0791 6.80935 14.8353 6.98908 14.6556C7.1688 14.4759 7.41255 14.3749 7.66672 14.3749H15.3334C15.5876 14.3749 15.8313 14.4759 16.011 14.6556C16.1908 14.8353 16.2917 15.0791 16.2917 15.3332C16.2917 15.5874 16.1908 15.8311 16.011 16.0109C15.8313 16.1906 15.5876 16.2916 15.3334 16.2916ZM15.3334 12.4582H7.66672C7.41255 12.4582 7.1688 12.3573 6.98908 12.1775C6.80935 11.9978 6.70839 11.7541 6.70839 11.4999C6.70839 11.2457 6.80935 11.002 6.98908 10.8222C7.1688 10.6425 7.41255 10.5416 7.66672 10.5416H15.3334C15.5876 10.5416 15.8313 10.6425 16.011 10.8222C16.1908 11.002 16.2917 11.2457 16.2917 11.4999C16.2917 11.7541 16.1908 11.9978 16.011 12.1775C15.8313 12.3573 15.5876 12.4582 15.3334 12.4582Z" fill="#9B84F8"/>
  </g>
  <defs>
  <clipPath id="clip0_2555_1695">
    <rect width="23" height="23" fill="white"/>
  </clipPath>
  </defs>
</svg>
