<svg width="#f00" height="#ff0" viewBox="0 0 20 20" fill="none"
    xmlns="http://www.w3.org/2000/svg">
    <path d="M10 12.4941C8.6193 12.4941 7.5 13.6134 7.5 14.9941V19.9941H12.5V14.9941C12.5 13.6134 11.3807 12.4941 10 12.4941Z" fill="#000"/>
    <path d="M14.1667 14.9939V19.9939H17.5C18.8807 19.9939 20 18.8746 20 17.4939V9.89307C20.0002 9.46014 19.832 9.04413 19.5308 8.73307L12.4492 1.07721C11.1996 -0.274738 9.09074 -0.357746 7.73879 0.891785C7.67457 0.95116 7.6127 1.013 7.55336 1.07721L0.48418 8.73057C0.173945 9.04292 -0.000117128 9.46534 5.9134e-08 9.90557V17.4939C5.9134e-08 18.8746 1.1193 19.9939 2.5 19.9939H5.83332V14.9939C5.84891 12.7216 7.68355 10.8659 9.89867 10.8125C12.1879 10.7573 14.1492 12.6445 14.1667 14.9939Z" fill="#000"/>
    <path d="M10 12.4941C8.6193 12.4941 7.5 13.6134 7.5 14.9941V19.9941H12.5V14.9941C12.5 13.6134 11.3807 12.4941 10 12.4941Z" fill="#000"/>
</svg>
