<svg width="#f00" height="#ff0" viewBox="0 0 20 20" fill="none"
    xmlns="http://www.w3.org/2000/svg">
    <path fill-rule="evenodd" clip-rule="evenodd" d="M10 20C15.5228 20 20 15.5228 20 10C20 4.47715 15.5228 0 10 0C4.47715 0 0 4.47715 0 10C0 15.5228 4.47715 20 10 20ZM7.96804 12.6397C8.14174 12.815 8.37753 12.9135 8.62339 12.9134C8.86926 12.9135 9.10505 12.815 9.27875 12.6397L14.3283 7.55326C14.5415 7.3384 14.5415 6.99012 14.3283 6.77526C14.115 6.56048 13.7693 6.56048 13.5561 6.77526L8.62339 11.7447L6.7589 9.86633C6.54564 9.65155 6.19993 9.65155 5.98667 9.86633C5.77347 10.0812 5.77347 10.4295 5.98667 10.6443L7.96804 12.6397Z" fill="#000"/>
</svg>
