<svg width="#f00" height="#ff0" viewBox="0 0 20 20" fill="none"
    xmlns="http://www.w3.org/2000/svg">
    <path d="M9.53574 19.0703C4.27945 19.0703 0 14.7911 0 9.53513C0 4.27918 4.27945 0 9.53574 0C14.792 0 19.0715 4.27918 19.0715 9.53513C19.0715 14.7911 14.792 19.0703 9.53574 19.0703ZM9.53574 1.39539C5.04231 1.39539 1.39547 5.0513 1.39547 9.53513C1.39547 14.019 5.04231 17.6749 9.53574 17.6749C14.0292 17.6749 17.676 14.019 17.676 9.53513C17.676 5.0513 14.0292 1.39539 9.53574 1.39539Z" fill="#000"/>
    <path d="M19.3046 20.0006C19.1278 20.0006 18.9511 19.9355 18.8115 19.796L16.9509 17.9355C16.6811 17.6657 16.6811 17.2192 16.9509 16.9494C17.2207 16.6796 17.6672 16.6796 17.937 16.9494L19.7976 18.8099C20.0674 19.0797 20.0674 19.5262 19.7976 19.796C19.6581 19.9355 19.4813 20.0006 19.3046 20.0006Z" fill="#000"/>
</svg>
