<svg width="#f00" height="#ff0" viewBox="0 0 20 20" fill="none"
    xmlns="http://www.w3.org/2000/svg">
    <path d="M16.6667 0H2.50004V2.5H0.833374V4.16667H2.50004V5.83333H0.833374V7.5H2.50004V9.16667H0.833374V10.8333H2.50004V12.5H0.833374V14.1667H2.50004V15.8333H0.833374V17.5H2.50004V20H16.6667C17.3297 20 17.9656 19.7366 18.4345 19.2678C18.9033 18.7989 19.1667 18.163 19.1667 17.5V2.5C19.1667 1.83696 18.9033 1.20107 18.4345 0.732233C17.9656 0.263392 17.3297 0 16.6667 0ZM10.8334 3.33333C11.4102 3.33333 11.9741 3.50439 12.4538 3.82488C12.9334 4.14537 13.3073 4.60089 13.528 5.13384C13.7488 5.66679 13.8065 6.25324 13.694 6.81901C13.5815 7.38479 13.3037 7.90449 12.8958 8.31239C12.4879 8.7203 11.9682 8.99808 11.4024 9.11062C10.8366 9.22316 10.2502 9.1654 9.71721 8.94465C9.18426 8.72389 8.72874 8.35006 8.40825 7.87041C8.08777 7.39077 7.91671 6.82686 7.91671 6.25C7.91671 5.47645 8.224 4.73459 8.77098 4.18761C9.31796 3.64062 10.0598 3.33333 10.8334 3.33333ZM15.8334 15H14.1667V13.3333C14.1667 13.1123 14.0789 12.9004 13.9226 12.7441C13.7664 12.5878 13.5544 12.5 13.3334 12.5H8.33337C8.11236 12.5 7.9004 12.5878 7.74412 12.7441C7.58784 12.9004 7.50004 13.1123 7.50004 13.3333V15H5.83337V13.3333C5.83337 12.6703 6.09677 12.0344 6.56561 11.5656C7.03445 11.0967 7.67033 10.8333 8.33337 10.8333H13.3334C13.9964 10.8333 14.6323 11.0967 15.1011 11.5656C15.57 12.0344 15.8334 12.6703 15.8334 13.3333V15ZM9.58337 6.25C9.58337 6.00277 9.65669 5.7611 9.79404 5.55554C9.93139 5.34998 10.1266 5.18976 10.355 5.09515C10.5834 5.00054 10.8348 4.97579 11.0772 5.02402C11.3197 5.07225 11.5424 5.1913 11.7173 5.36612C11.8921 5.54093 12.0111 5.76366 12.0594 6.00614C12.1076 6.24861 12.0828 6.49995 11.9882 6.72835C11.8936 6.95676 11.7334 7.15199 11.5278 7.28934C11.3223 7.42669 11.0806 7.5 10.8334 7.5C10.5019 7.5 10.1839 7.3683 9.94949 7.13388C9.71507 6.89946 9.58337 6.58152 9.58337 6.25Z" fill="#000"/>
</svg>
