<svg width="#f00" height="#ff0" viewBox="0 0 20 20" fill="none"
    xmlns="http://www.w3.org/2000/svg">
    <path d="M16.1145 12.2221C15.4851 12.2226 14.8653 12.3764 14.3086 12.6702C13.7519 12.9641 13.275 13.3891 12.919 13.9086L7.50101 11.4596C7.88583 10.5294 7.88732 9.48445 7.50517 8.55309L12.9156 6.09156C13.4432 6.85548 14.2269 7.40479 15.1244 7.63985C16.0219 7.8749 16.9739 7.78014 17.8076 7.37274C18.6413 6.96534 19.3016 6.27229 19.6686 5.41931C20.0356 4.56633 20.0851 3.60991 19.808 2.72354C19.531 1.83717 18.9458 1.07956 18.1586 0.588138C17.3713 0.0967128 16.4342 -0.0959783 15.5173 0.0450173C14.6003 0.186013 13.7642 0.651356 13.1605 1.35664C12.5569 2.06192 12.2258 2.96042 12.2273 3.88917C12.2308 4.10899 12.2531 4.32811 12.2938 4.54414L6.54211 7.16067C5.9897 6.64254 5.29813 6.29724 4.55237 6.16719C3.80662 6.03713 3.03916 6.12798 2.34427 6.42859C1.64939 6.72919 1.05734 7.22644 0.640881 7.85927C0.224418 8.49209 0.0016726 9.23291 9.38271e-06 9.99073C-0.00165383 10.7485 0.217838 11.4903 0.631519 12.125C1.0452 12.7596 1.63505 13.2595 2.32861 13.5631C3.02217 13.8668 3.78923 13.961 4.53555 13.8343C5.28187 13.7075 5.97494 13.3652 6.52963 12.8495L12.2963 15.4561C12.2563 15.6719 12.2343 15.8907 12.2306 16.1102C12.2304 16.8794 12.4581 17.6314 12.8849 18.2711C13.3117 18.9108 13.9184 19.4094 14.6283 19.7038C15.3382 19.9983 16.1193 20.0753 16.873 19.9253C17.6266 19.7753 18.3189 19.4049 18.8622 18.8609C19.4055 18.317 19.7755 17.624 19.9254 16.8695C20.0753 16.1151 19.9983 15.3331 19.7041 14.6224C19.41 13.9118 18.912 13.3044 18.273 12.8771C17.634 12.4499 16.8829 12.2219 16.1145 12.2221ZM16.1145 1.66679C16.5536 1.66662 16.9828 1.79682 17.348 2.04092C17.7132 2.28502 17.9979 2.63205 18.166 3.03812C18.3342 3.4442 18.3783 3.89107 18.2927 4.32223C18.2071 4.75338 17.9958 5.14945 17.6853 5.46034C17.3749 5.77123 16.9793 5.98297 16.5487 6.06879C16.118 6.15461 15.6716 6.11065 15.2659 5.94247C14.8603 5.77428 14.5135 5.48944 14.2695 5.12395C14.0256 4.75846 13.8953 4.32875 13.8953 3.88917C13.8958 3.30004 14.1297 2.73515 14.5457 2.31849C14.9618 1.90183 15.526 1.66745 16.1145 1.66679ZM3.9068 12.2221C3.4677 12.2222 3.03842 12.092 2.67324 11.8479C2.30806 11.6038 2.02339 11.2568 1.85524 10.8507C1.68709 10.4447 1.64301 9.99779 1.72857 9.56663C1.81414 9.13548 2.0255 8.73941 2.33593 8.42852C2.64637 8.11763 3.04192 7.90588 3.47257 7.82007C3.90322 7.73425 4.34963 7.77821 4.75532 7.94639C5.16101 8.11457 5.50777 8.39942 5.75174 8.76491C5.9957 9.1304 6.12592 9.5601 6.12592 9.99969C6.12526 10.5888 5.89128 11.1535 5.47528 11.5701C5.05928 11.9867 4.49522 12.2212 3.9068 12.2221ZM16.1145 18.3326C15.6754 18.3326 15.2462 18.2022 14.8811 17.958C14.516 17.7138 14.2315 17.3668 14.0635 16.9607C13.8955 16.5546 13.8515 16.1077 13.9372 15.6766C14.0228 15.2455 14.2342 14.8495 14.5447 14.5387C14.8552 14.2279 15.2507 14.0163 15.6814 13.9305C16.112 13.8448 16.5584 13.8888 16.964 14.057C17.3696 14.2252 17.7163 14.51 17.9603 14.8755C18.2042 15.241 18.3344 15.6707 18.3344 16.1102C18.334 16.6995 18.0999 17.2645 17.6837 17.6812C17.2675 18.0979 16.7031 18.3321 16.1145 18.3326Z" fill="#000"/>
</svg>
