<svg width="#f00" height="#ff0" viewBox="0 0 20 20" fill="none" xmlns="http://www.w3.org/2000/svg">
  <g clip-path="url(#clip0_3162_1550)">
    <path d="M20 15L20 11.6667L19.1667 11.6667C18.7246 11.6667 18.3007 11.4911 17.9882 11.1785C17.6756 10.866 17.5 10.442 17.5 10C17.5 9.55797 17.6756 9.13405 17.9882 8.82149C18.3007 8.50893 18.7246 8.33333 19.1667 8.33333L20 8.33333L20 5C20 4.33696 19.7366 3.70107 19.2678 3.23223C18.7989 2.76339 18.163 2.5 17.5 2.5L4.76837e-07 2.5L2.21854e-07 8.33333L0.833334 8.33333C1.27536 8.33333 1.69928 8.50893 2.01184 8.82149C2.32441 9.13405 2.5 9.55797 2.5 10C2.5 10.442 2.3244 10.8659 2.01184 11.1785C1.69928 11.4911 1.27536 11.6667 0.833333 11.6667L7.61494e-08 11.6667L-1.78834e-07 17.5L17.5 17.5C18.163 17.5 18.7989 17.2366 19.2678 16.7678C19.7366 16.2989 20 15.663 20 15ZM1.66667 13.2283C2.38294 13.0442 3.01762 12.627 3.47081 12.0426C3.924 11.4581 4.16996 10.7396 4.16996 10C4.16996 9.26043 3.924 8.54186 3.47081 7.95742C3.01763 7.37297 2.38294 6.95583 1.66667 6.77167L1.66667 4.16667L5.83333 4.16667L5.83333 6.66667L7.5 6.66667L7.5 4.16667L17.5 4.16667C17.721 4.16667 17.933 4.25446 18.0893 4.41074C18.2455 4.56702 18.3333 4.77899 18.3333 5L18.3333 6.77167C17.6171 6.95583 16.9824 7.37297 16.5292 7.95742C16.076 8.54186 15.83 9.26043 15.83 10C15.83 10.7396 16.076 11.4581 16.5292 12.0426C16.9824 12.627 17.6171 13.0442 18.3333 13.2283L18.3333 15C18.3333 15.221 18.2455 15.433 18.0893 15.5893C17.933 15.7455 17.721 15.8333 17.5 15.8333L7.5 15.8333L7.5 13.3333L5.83333 13.3333L5.83333 15.8333L1.66667 15.8333L1.66667 13.2283Z" fill="white"/>
    <path d="M7.5 11.6666L7.5 8.33325L5.83333 8.33325L5.83333 11.6666L7.5 11.6666Z" fill="white"/>
  </g>
  <defs>
    <clipPath id="clip0_3162_1550">
      <rect width="#f00" height="#ff0" fill="white" transform="translate(20) rotate(90)"/>
    </clipPath>
  </defs>
</svg>
