<svg width="20" height="20" viewBox="0 0 20 20" fill="none" xmlns="http://www.w3.org/2000/svg">
  <g clip-path="url(#clip0_2753_980)">
    <path d="M16.3958 2.29831C15.34 1.41969 14.1136 0.769278 12.794 0.38806C11.4743 0.00684072 10.09 -0.0969218 8.72832 0.0833103C6.2092 0.410575 3.90905 1.68429 2.29492 3.64582C0.68078 5.60735 -0.126349 8.10966 0.0374187 10.6447C0.201186 13.1797 1.32357 15.5573 3.17668 17.2949C5.02978 19.0324 7.4747 19.9996 10.015 20H15.8333C16.938 19.9987 17.997 19.5592 18.7781 18.7781C19.5592 17.997 19.9987 16.938 20 15.8333V9.42414V9.37164C19.9118 8.00951 19.5467 6.67969 18.927 5.46349C18.3073 4.24729 17.446 3.17028 16.3958 2.29831ZM6.66665 5.83331H9.99998C10.221 5.83331 10.433 5.92111 10.5892 6.07739C10.7455 6.23367 10.8333 6.44563 10.8333 6.66664C10.8333 6.88766 10.7455 7.09962 10.5892 7.2559C10.433 7.41218 10.221 7.49998 9.99998 7.49998H6.66665C6.44564 7.49998 6.23367 7.41218 6.07739 7.2559C5.92111 7.09962 5.83332 6.88766 5.83332 6.66664C5.83332 6.44563 5.92111 6.23367 6.07739 6.07739C6.23367 5.92111 6.44564 5.83331 6.66665 5.83331ZM13.3333 14.1666H6.66665C6.44564 14.1666 6.23367 14.0788 6.07739 13.9226C5.92111 13.7663 5.83332 13.5543 5.83332 13.3333C5.83332 13.1123 5.92111 12.9003 6.07739 12.7441C6.23367 12.5878 6.44564 12.5 6.66665 12.5H13.3333C13.5543 12.5 13.7663 12.5878 13.9226 12.7441C14.0789 12.9003 14.1666 13.1123 14.1666 13.3333C14.1666 13.5543 14.0789 13.7663 13.9226 13.9226C13.7663 14.0788 13.5543 14.1666 13.3333 14.1666ZM13.3333 10.8333H6.66665C6.44564 10.8333 6.23367 10.7455 6.07739 10.5892C5.92111 10.433 5.83332 10.221 5.83332 9.99998C5.83332 9.77896 5.92111 9.567 6.07739 9.41072C6.23367 9.25444 6.44564 9.16664 6.66665 9.16664H13.3333C13.5543 9.16664 13.7663 9.25444 13.9226 9.41072C14.0789 9.567 14.1666 9.77896 14.1666 9.99998C14.1666 10.221 14.0789 10.433 13.9226 10.5892C13.7663 10.7455 13.5543 10.8333 13.3333 10.8333Z" fill="#9B84F8"/>
  </g>
  <defs>
  <clipPath id="clip0_2753_980">
    <rect width="20" height="20" fill="white"/>
  </clipPath>
  </defs>
</svg>
