<svg width="#f00" height="#ff0" viewBox="0 0 20 20" fill="none"
    xmlns="http://www.w3.org/2000/svg">
    <path d="M11.6652 5.82148C11.6652 6.15075 11.5675 6.47263 11.3844 6.74641C11.2013 7.02019 10.941 7.23358 10.6365 7.35958C10.332 7.48559 9.99692 7.51856 9.67366 7.45432C9.3504 7.39008 9.05346 7.23152 8.8204 6.99869C8.58735 6.76586 8.42863 6.46922 8.36433 6.14627C8.30003 5.82333 8.33303 5.48859 8.45916 5.18438C8.58529 4.88017 8.79889 4.62016 9.07293 4.43723C9.34698 4.25429 9.66917 4.15665 9.99877 4.15665C10.4407 4.15665 10.8646 4.33205 11.1771 4.64427C11.4896 4.95649 11.6652 5.37994 11.6652 5.82148ZM14.1232 9.94776L9.99877 13.9791L5.88096 9.95359C5.06371 9.13969 4.50649 8.1019 4.27981 6.97154C4.05313 5.84117 4.16717 4.66903 4.6075 3.60343C5.04783 2.53784 5.79467 1.62668 6.75351 0.985243C7.71235 0.34381 8.84009 0.000934238 9.99405 1.90642e-06C11.148 -0.000930425 12.2763 0.340122 13.2362 0.980005C14.196 1.61989 14.9444 2.52984 15.3864 3.59473C15.8285 4.65961 15.9444 5.83156 15.7196 6.96229C15.4947 8.09303 14.9392 9.13255 14.1232 9.94776ZM13.3317 5.82148C13.3317 5.16294 13.1362 4.51918 12.77 3.97162C12.4038 3.42406 11.8832 2.99729 11.2742 2.74528C10.6652 2.49326 9.99507 2.42733 9.34855 2.5558C8.70203 2.68428 8.10816 3.0014 7.64204 3.46706C7.17593 3.93272 6.8585 4.52601 6.7299 5.1719C6.6013 5.81779 6.6673 6.48727 6.91956 7.09569C7.17182 7.7041 7.59901 8.22412 8.1471 8.58999C8.6952 8.95586 9.33958 9.15114 9.99877 9.15114C10.8827 9.15114 11.7304 8.80034 12.3555 8.17591C12.9805 7.55147 13.3317 6.70456 13.3317 5.82148ZM18.2202 8.829L17.0245 8.42944C16.6524 9.44223 16.0645 10.3622 15.3014 11.1256L9.99877 16.3099L4.7161 11.1489C3.71331 10.1508 3.01416 8.88927 2.69969 7.51045C2.35618 7.47886 2.00986 7.51942 1.68298 7.62952C1.3561 7.73961 1.05588 7.91681 0.801634 8.14972C0.547385 8.38263 0.344723 8.66611 0.206671 8.98193C0.0686198 9.29775 -0.00176707 9.63894 3.36997e-05 9.98355V18.1013L6.65169 20L13.3342 18.3352L20 19.9567V11.218C19.9997 10.6815 19.8264 10.1594 19.5058 9.72897C19.1853 9.29853 18.7345 8.98351 18.2202 8.829Z" fill="#000"/>

</svg>
