<svg width="#f00" height="#ff0" viewBox="0 0 20 20" fill="none"
    xmlns="http://www.w3.org/2000/svg">
    <path d="M14.123 13.9183C14.2671 13.1808 14.0363 12.4233 13.5054 11.8925L8.10594 6.49333C7.57507 5.96167 6.81669 5.73167 6.08081 5.87583C5.3441 6.02083 4.7299 6.51917 4.43821 7.2125L0.147947 17.4008C-0.148738 18.105 0.00877193 18.9092 0.548805 19.4492C0.907994 19.8083 1.38386 19.9983 1.86889 19.9983C2.1139 19.9983 2.36142 19.9492 2.5981 19.85L12.7879 15.5608C13.4804 15.2692 13.9796 14.655 14.1238 13.9183H14.123ZM1.95056 18.3133C1.86805 18.3492 1.79221 18.3342 1.72721 18.27C1.66221 18.2058 1.64804 18.13 1.68387 18.0458L4.57739 11.1733L8.82431 15.4192L1.95056 18.3133ZM12.4879 13.5975C12.4695 13.6892 12.4004 13.915 12.1403 14.0242L10.4827 14.7217L5.27576 9.51583L5.97414 7.8575C6.08331 7.59833 6.30916 7.52833 6.40083 7.51083C6.42833 7.505 6.46834 7.5 6.51584 7.5C6.62918 7.5 6.78752 7.53083 6.92753 7.67083L12.327 13.07C12.5262 13.2692 12.5054 13.505 12.4879 13.5975ZM11.4353 0.314167C11.7228 -0.0433333 12.2404 -0.1025 12.5987 0.179167C12.6679 0.234167 14.3072 1.555 14.1638 3.80333C14.108 4.68417 13.7704 5.53583 13.1621 6.3375C12.9987 6.55333 12.7496 6.6675 12.4979 6.6675C12.3229 6.6675 12.1454 6.6125 11.9945 6.49833C11.6278 6.22 11.5561 5.6975 11.8345 5.33083C12.2412 4.795 12.4645 4.24583 12.4995 3.69833C12.5862 2.33917 11.6012 1.51917 11.5595 1.485C11.2053 1.195 11.1478 0.671667 11.4345 0.315833L11.4353 0.314167ZM19.6466 11.5142C19.5008 11.6167 19.3333 11.6667 19.1674 11.6667C18.9083 11.6667 18.6541 11.5467 18.4916 11.3225C18.4666 11.29 18.1082 10.8333 17.4998 10.8333C17.214 10.8333 16.9606 10.915 16.7473 11.0758C16.3798 11.3542 15.8572 11.28 15.5797 10.9133C15.3022 10.5467 15.3755 10.0233 15.7431 9.74667C16.2456 9.3675 16.8531 9.1675 17.4998 9.1675C18.6933 9.1675 19.5366 9.91333 19.8475 10.3542C20.1125 10.73 20.0225 11.25 19.6466 11.5158V11.5142ZM17.4998 1.25C17.4998 0.56 18.0599 0 18.7499 0C19.44 0 20 0.56 20 1.25C20 1.94 19.44 2.5 18.7499 2.5C18.0599 2.5 17.4998 1.94 17.4998 1.25ZM15.8331 5.41667C15.8331 4.72667 16.3931 4.16667 17.0832 4.16667C17.7732 4.16667 18.3332 4.72667 18.3332 5.41667C18.3332 6.10667 17.7732 6.66667 17.0832 6.66667C16.3931 6.66667 15.8331 6.10667 15.8331 5.41667ZM6.66501 2.08333C6.66501 1.39333 7.22505 0.833333 7.91509 0.833333C8.60513 0.833333 9.16517 1.39333 9.16517 2.08333C9.16517 2.77333 8.60513 3.33333 7.91509 3.33333C7.22505 3.33333 6.66501 2.77333 6.66501 2.08333ZM19.1658 15.4167C19.1658 16.1067 18.6057 16.6667 17.9157 16.6667C17.2257 16.6667 16.6656 16.1067 16.6656 15.4167C16.6656 14.7267 17.2257 14.1667 17.9157 14.1667C18.6057 14.1667 19.1658 14.7267 19.1658 15.4167ZM0.831322 2.91667C0.831322 2.22667 1.39136 1.66667 2.0814 1.66667C2.77144 1.66667 3.33148 2.22667 3.33148 2.91667C3.33148 3.60667 2.77144 4.16667 2.0814 4.16667C1.39136 4.16667 0.831322 3.60667 0.831322 2.91667ZM14.9989 18.75C14.9989 19.44 14.4388 20 13.7488 20C13.0587 20 12.4987 19.44 12.4987 18.75C12.4987 18.06 13.0587 17.5 13.7488 17.5C14.4388 17.5 14.9989 18.06 14.9989 18.75Z" fill="#000"/>
</svg>
