<svg width="#f00" height="#ff0" viewBox="0 0 20 20" fill="none"
    xmlns="http://www.w3.org/2000/svg">
    <path d="M16.6667 6.667C16.6677 5.38379 16.2983 4.12757 15.6029 3.04911C14.9076 1.97065 13.9157 1.11579 12.7465 0.587145C11.5772 0.0585003 10.2803 -0.121465 9.01124 0.0688521C7.74222 0.259169 6.5551 0.81168 5.59236 1.66006C4.62963 2.50845 3.93219 3.61665 3.58378 4.85165C3.23536 6.08665 3.25077 7.39596 3.62815 8.62242C4.00553 9.84887 4.72886 10.9404 5.71129 11.7659C6.69372 12.5913 7.89352 13.1158 9.16666 13.2762V15.8337H7.49999C7.27898 15.8337 7.06702 15.9215 6.91074 16.0777C6.75446 16.234 6.66666 16.446 6.66666 16.667C6.66666 16.888 6.75446 17.1 6.91074 17.2563C7.06702 17.4125 7.27898 17.5003 7.49999 17.5003H9.16666V19.167C9.16666 19.388 9.25446 19.6 9.41074 19.7563C9.56702 19.9125 9.77898 20.0003 9.99999 20.0003C10.221 20.0003 10.433 19.9125 10.5892 19.7563C10.7455 19.6 10.8333 19.388 10.8333 19.167V17.5003H12.5C12.721 17.5003 12.933 17.4125 13.0892 17.2563C13.2455 17.1 13.3333 16.888 13.3333 16.667C13.3333 16.446 13.2455 16.234 13.0892 16.0777C12.933 15.9215 12.721 15.8337 12.5 15.8337H10.8333V13.2762C12.4429 13.0719 13.923 12.2883 14.9966 11.0719C16.0703 9.85542 16.664 8.28948 16.6667 6.667ZM4.99999 6.667C4.99999 5.67809 5.29324 4.71139 5.84264 3.88915C6.39205 3.0669 7.17295 2.42604 8.08658 2.0476C9.00021 1.66916 10.0055 1.57015 10.9754 1.76307C11.9453 1.956 12.8363 2.4322 13.5355 3.13147C14.2348 3.83073 14.711 4.72164 14.9039 5.69155C15.0968 6.66145 14.9978 7.66679 14.6194 8.58042C14.241 9.49405 13.6001 10.2749 12.7778 10.8243C11.9556 11.3738 10.9889 11.667 9.99999 11.667C8.67432 11.6657 7.40332 11.1385 6.46592 10.2011C5.52853 9.26368 5.00132 7.99268 4.99999 6.667Z" fill="#000"/>
</svg>
