<svg width="#f00" height="#ff0" viewBox="0 0 20 20" fill="none"
    xmlns="http://www.w3.org/2000/svg">
    <path d="M17.5 0H2.5C1.83696 0 1.20107 0.266833 0.732233 0.7418C0.263392 1.21677 0 1.86096 0 2.53266L0 16.8844H5.75L8.92333 19.6011C9.22416 19.8587 9.6053 20 9.99917 20C10.393 20 10.7742 19.8587 11.075 19.6011L14.25 16.8844H20V2.53266C20 1.86096 19.7366 1.21677 19.2678 0.7418C18.7989 0.266833 18.163 0 17.5 0ZM18.3333 15.196H13.6383L10 18.3112L6.36167 15.196H1.66667V2.53266C1.66667 2.30876 1.75446 2.09403 1.91074 1.93571C2.06702 1.77739 2.27899 1.68844 2.5 1.68844H17.5C17.721 1.68844 17.933 1.77739 18.0893 1.93571C18.2455 2.09403 18.3333 2.30876 18.3333 2.53266V15.196Z" fill="#000"/>
    <path d="M10 4.22119H5V5.90963H10V4.22119Z" fill="#000"/>
    <path d="M15 7.59814H5V9.28659H15V7.59814Z" fill="#000"/>
    <path d="M15 10.9746H5V12.6631H15V10.9746Z" fill="#000"/>
</svg>
