<svg width="#f00" height="#ff0" viewBox="0 0 20 20" fill="none"
    xmlns="http://www.w3.org/2000/svg">
    <path d="M6.25 10.8333C5.50832 10.8333 4.7833 10.6134 4.16661 10.2013C3.54993 9.78929 3.06928 9.20362 2.78545 8.5184C2.50162 7.83318 2.42736 7.07918 2.57206 6.35175C2.71675 5.62432 3.0739 4.95613 3.59835 4.43168C4.1228 3.90724 4.79098 3.55009 5.51841 3.40539C6.24584 3.2607 6.99984 3.33496 7.68506 3.61879C8.37029 3.90262 8.95596 4.38326 9.36801 4.99995C9.78007 5.61663 10 6.34166 10 7.08334C9.9989 8.07756 9.60345 9.03075 8.90043 9.73377C8.19741 10.4368 7.24422 10.8322 6.25 10.8333ZM12.5 16.6667C12.4987 15.562 12.0593 14.503 11.2781 13.7219C10.497 12.9407 9.438 12.5013 8.33333 12.5H4.16667C3.062 12.5013 2.00296 12.9407 1.22185 13.7219C0.440735 14.503 0.00132321 15.562 0 16.6667L0 20H12.5V16.6667ZM14.5833 7.5C13.8417 7.5 13.1166 7.28007 12.4999 6.86801C11.8833 6.45596 11.4026 5.87029 11.1188 5.18507C10.835 4.49984 10.7607 3.74584 10.9054 3.01841C11.0501 2.29098 11.4072 1.6228 11.9317 1.09835C12.4561 0.573904 13.1243 0.216751 13.8517 0.0720569C14.5792 -0.0726377 15.3332 0.00162482 16.0184 0.285453C16.7036 0.569282 17.2893 1.04993 17.7013 1.66661C18.1134 2.2833 18.3333 3.00832 18.3333 3.75C18.3322 4.74423 17.9368 5.69741 17.2338 6.40043C16.5307 7.10346 15.5776 7.4989 14.5833 7.5ZM15.8333 9.16667H11.6667C11.5204 9.17338 11.3746 9.18812 11.23 9.21084C10.927 9.91193 10.4795 10.5412 9.91667 11.0575C11.1386 11.4032 12.2145 12.1379 12.9814 13.15C13.7484 14.1622 14.1644 15.3968 14.1667 16.6667H20V13.3333C19.9987 12.2287 19.5593 11.1696 18.7782 10.3885C17.997 9.6074 16.938 9.16799 15.8333 9.16667Z" fill="#000"/>
</svg>
