<svg width="#f00" height="#ff0" viewBox="0 0 20 20" fill="none"
    xmlns="http://www.w3.org/2000/svg">
    <path d="M6.66668 17.4999H3.33334C3.11233 17.4999 2.90037 17.4121 2.74409 17.2558C2.58781 17.0996 2.50001 16.8876 2.50001 16.6666V13.3333C2.50001 13.1122 2.41221 12.9003 2.25593 12.744C2.09965 12.5877 1.88769 12.4999 1.66668 12.4999C1.44566 12.4999 1.2337 12.5877 1.07742 12.744C0.921141 12.9003 0.833344 13.1122 0.833344 13.3333V16.6666C0.833344 17.3296 1.09674 17.9655 1.56558 18.4344C2.03442 18.9032 2.6703 19.1666 3.33334 19.1666H6.66668C6.88769 19.1666 7.09965 19.0788 7.25593 18.9225C7.41221 18.7662 7.50001 18.5543 7.50001 18.3333C7.50001 18.1122 7.41221 17.9003 7.25593 17.744C7.09965 17.5877 6.88769 17.4999 6.66668 17.4999ZM18.3333 12.4999C18.1123 12.4999 17.9004 12.5877 17.7441 12.744C17.5878 12.9003 17.5 13.1122 17.5 13.3333V16.6666C17.5 16.8876 17.4122 17.0996 17.2559 17.2558C17.0997 17.4121 16.8877 17.4999 16.6667 17.4999H13.3333C13.1123 17.4999 12.9004 17.5877 12.7441 17.744C12.5878 17.9003 12.5 18.1122 12.5 18.3333C12.5 18.5543 12.5878 18.7662 12.7441 18.9225C12.9004 19.0788 13.1123 19.1666 13.3333 19.1666H16.6667C17.3297 19.1666 17.9656 18.9032 18.4344 18.4344C18.9033 17.9655 19.1667 17.3296 19.1667 16.6666V13.3333C19.1667 13.1122 19.0789 12.9003 18.9226 12.744C18.7663 12.5877 18.5544 12.4999 18.3333 12.4999ZM16.6667 0.833252H13.3333C13.1123 0.833252 12.9004 0.921049 12.7441 1.07733C12.5878 1.23361 12.5 1.44557 12.5 1.66659C12.5 1.8876 12.5878 2.09956 12.7441 2.25584C12.9004 2.41212 13.1123 2.49992 13.3333 2.49992H16.6667C16.8877 2.49992 17.0997 2.58772 17.2559 2.744C17.4122 2.90028 17.5 3.11224 17.5 3.33325V6.66658C17.5 6.8876 17.5878 7.09956 17.7441 7.25584C17.9004 7.41212 18.1123 7.49992 18.3333 7.49992C18.5544 7.49992 18.7663 7.41212 18.9226 7.25584C19.0789 7.09956 19.1667 6.8876 19.1667 6.66658V3.33325C19.1667 2.67021 18.9033 2.03433 18.4344 1.56548C17.9656 1.09664 17.3297 0.833252 16.6667 0.833252ZM1.66668 7.49992C1.88769 7.49992 2.09965 7.41212 2.25593 7.25584C2.41221 7.09956 2.50001 6.8876 2.50001 6.66658V3.33325C2.50001 3.11224 2.58781 2.90028 2.74409 2.744C2.90037 2.58772 3.11233 2.49992 3.33334 2.49992H6.66668C6.88769 2.49992 7.09965 2.41212 7.25593 2.25584C7.41221 2.09956 7.50001 1.8876 7.50001 1.66659C7.50001 1.44557 7.41221 1.23361 7.25593 1.07733C7.09965 0.921049 6.88769 0.833252 6.66668 0.833252H3.33334C2.6703 0.833252 2.03442 1.09664 1.56558 1.56548C1.09674 2.03433 0.833344 2.67021 0.833344 3.33325V6.66658C0.833344 6.8876 0.921141 7.09956 1.07742 7.25584C1.2337 7.41212 1.44566 7.49992 1.66668 7.49992ZM8.33334 4.16658H5.00001C4.779 4.16658 4.56703 4.25438 4.41075 4.41066C4.25447 4.56694 4.16668 4.7789 4.16668 4.99992V8.33325C4.16668 8.55426 4.25447 8.76623 4.41075 8.92251C4.56703 9.07879 4.779 9.16658 5.00001 9.16658H8.33334C8.55436 9.16658 8.76632 9.07879 8.9226 8.92251C9.07888 8.76623 9.16668 8.55426 9.16668 8.33325V4.99992C9.16668 4.7789 9.07888 4.56694 8.9226 4.41066C8.76632 4.25438 8.55436 4.16658 8.33334 4.16658ZM7.50001 7.49992H5.83334V5.83325H7.50001V7.49992ZM11.6667 9.16658H15C15.221 9.16658 15.433 9.07879 15.5893 8.92251C15.7455 8.76623 15.8333 8.55426 15.8333 8.33325V4.99992C15.8333 4.7789 15.7455 4.56694 15.5893 4.41066C15.433 4.25438 15.221 4.16658 15 4.16658H11.6667C11.4457 4.16658 11.2337 4.25438 11.0774 4.41066C10.9211 4.56694 10.8333 4.7789 10.8333 4.99992V8.33325C10.8333 8.55426 10.9211 8.76623 11.0774 8.92251C11.2337 9.07879 11.4457 9.16658 11.6667 9.16658ZM12.5 5.83325H14.1667V7.49992H12.5V5.83325ZM8.33334 10.8333H5.00001C4.779 10.8333 4.56703 10.921 4.41075 11.0773C4.25447 11.2336 4.16668 11.4456 4.16668 11.6666V14.9999C4.16668 15.2209 4.25447 15.4329 4.41075 15.5892C4.56703 15.7455 4.779 15.8333 5.00001 15.8333H8.33334C8.55436 15.8333 8.76632 15.7455 8.9226 15.5892C9.07888 15.4329 9.16668 15.2209 9.16668 14.9999V11.6666C9.16668 11.4456 9.07888 11.2336 8.9226 11.0773C8.76632 10.921 8.55436 10.8333 8.33334 10.8333ZM7.50001 14.1666H5.83334V12.4999H7.50001V14.1666ZM11.6667 13.3333C11.8877 13.3333 12.0997 13.2455 12.2559 13.0892C12.4122 12.9329 12.5 12.7209 12.5 12.4999C12.721 12.4999 12.933 12.4121 13.0893 12.2558C13.2455 12.0996 13.3333 11.8876 13.3333 11.6666C13.3333 11.4456 13.2455 11.2336 13.0893 11.0773C12.933 10.921 12.721 10.8333 12.5 10.8333H11.6667C11.4457 10.8333 11.2337 10.921 11.0774 11.0773C10.9211 11.2336 10.8333 11.4456 10.8333 11.6666V12.4999C10.8333 12.7209 10.9211 12.9329 11.0774 13.0892C11.2337 13.2455 11.4457 13.3333 11.6667 13.3333ZM15 10.8333C14.779 10.8333 14.567 10.921 14.4108 11.0773C14.2545 11.2336 14.1667 11.4456 14.1667 11.6666V14.1666C13.9457 14.1666 13.7337 14.2544 13.5774 14.4107C13.4211 14.5669 13.3333 14.7789 13.3333 14.9999C13.3333 15.2209 13.4211 15.4329 13.5774 15.5892C13.7337 15.7455 13.9457 15.8333 14.1667 15.8333H15C15.221 15.8333 15.433 15.7455 15.5893 15.5892C15.7455 15.4329 15.8333 15.2209 15.8333 14.9999V11.6666C15.8333 11.4456 15.7455 11.2336 15.5893 11.0773C15.433 10.921 15.221 10.8333 15 10.8333ZM11.6667 14.1666C11.5019 14.1666 11.3407 14.2155 11.2037 14.307C11.0667 14.3986 10.9598 14.5287 10.8968 14.681C10.8337 14.8333 10.8172 15.0008 10.8494 15.1625C10.8815 15.3241 10.9609 15.4726 11.0774 15.5892C11.194 15.7057 11.3424 15.7851 11.5041 15.8172C11.6658 15.8494 11.8333 15.8329 11.9856 15.7698C12.1379 15.7067 12.268 15.5999 12.3596 15.4629C12.4511 15.3259 12.5 15.1647 12.5 14.9999C12.5 14.7789 12.4122 14.5669 12.2559 14.4107C12.0997 14.2544 11.8877 14.1666 11.6667 14.1666Z" fill="#000"/>
</svg>
