<svg width="20" height="20" viewBox="0 0 20 20" fill="none" xmlns="http://www.w3.org/2000/svg">
  <path d="M14.5815 0C13.6435 0.0145899 12.726 0.276433 11.9215 0.759087C11.1171 1.24174 10.4543 1.92811 10 2.74889C9.54572 1.92811 8.8829 1.24174 8.07847 0.759087C7.27405 0.276433 6.35651 0.0145899 5.41852 0C3.92324 0.0649661 2.51444 0.719088 1.49991 1.81946C0.485388 2.91983 -0.0524034 4.37701 0.00403263 5.87263C0.00403263 11.5162 9.13035 18.0344 9.51853 18.3109L10 18.6516L10.4815 18.3109C10.8696 18.0361 19.996 11.5162 19.996 5.87263C20.0524 4.37701 19.5146 2.91983 18.5001 1.81946C17.4856 0.719088 16.0768 0.0649661 14.5815 0Z" fill="#9B84F8"/>
</svg>
