<svg width="f00" height="ff0" viewBox="0 0 20 20" fill="none"
    xmlns="http://www.w3.org/2000/svg">
    <path d="M7.4212 2.5H12.5788C12.9226 2.5 13.4097 2.72988 13.6103 3.01724L15.043 5.11494C15.1862 5.31609 15.4155 5.43103 15.6447 5.43103H18.7106C19.4269 5.43103 20 6.00575 20 6.72414V16.2069C20 16.9253 19.4269 17.5 18.7106 17.5H1.2894C0.573066 17.5 0 16.9253 0 16.2069V6.72414C0 6.00575 0.573066 5.43103 1.2894 5.43103H4.3553C4.58453 5.43103 4.81375 5.31609 4.95702 5.11494L6.38968 3.01724C6.59026 2.72988 7.04871 2.5 7.4212 2.5ZM14.8424 7.0977C14.8424 7.47126 15.1289 7.75862 15.5014 7.75862C15.8453 7.75862 16.1605 7.47126 16.1605 7.0977C16.1605 6.72414 15.8739 6.43678 15.5014 6.43678C15.1289 6.43678 14.8424 6.72414 14.8424 7.0977ZM5.47278 11.3506C5.47278 13.8793 7.50716 15.9195 10 15.9195C12.4928 15.9195 14.5272 13.8793 14.5272 11.3506C14.5272 8.82184 12.4928 6.78161 10 6.78161C7.50716 6.78161 5.47278 8.82184 5.47278 11.3506ZM1.91977 3.16092H3.20917C3.55301 3.16092 3.83954 3.44828 3.83954 3.82184V4.48276H1.26074V3.82184C1.2894 3.44828 1.57593 3.16092 1.91977 3.16092ZM6.44699 11.3506C6.44699 9.36782 8.02292 7.75862 10 7.75862C11.9771 7.75862 13.553 9.36782 13.553 11.3506C13.553 13.3333 11.9771 14.9425 10 14.9425C8.02292 14.9425 6.44699 13.3333 6.44699 11.3506Z" fill="#000"/>
</svg>
