<svg width="#f00" height="#ff0" viewBox="0 0 20 20" fill="none"
    xmlns="http://www.w3.org/2000/svg">
    <path d="M17.5 20.0002H13.3333V18.3335H17.5C17.721 18.3335 17.933 18.2457 18.0893 18.0894C18.2455 17.9331 18.3333 17.7212 18.3333 17.5002V13.3335H20V17.5002C20 18.1632 19.7366 18.7991 19.2678 19.2679C18.7989 19.7368 18.1631 20.0002 17.5 20.0002Z" fill="#000"/>
    <path d="M1.66667 6.66667H0V2.5C0 1.83696 0.263392 1.20107 0.732233 0.732233C1.20107 0.263392 1.83696 0 2.5 0L6.66667 0V1.66667H2.5C2.27899 1.66667 2.06702 1.75446 1.91074 1.91074C1.75446 2.06702 1.66667 2.27899 1.66667 2.5V6.66667Z" fill="#000"/>
    <path d="M6.66667 20.0002H2.5C1.83696 20.0002 1.20107 19.7368 0.732233 19.2679C0.263392 18.7991 0 18.1632 0 17.5002L0 13.3335H1.66667V17.5002C1.66667 17.7212 1.75446 17.9331 1.91074 18.0894C2.06702 18.2457 2.27899 18.3335 2.5 18.3335H6.66667V20.0002Z" fill="#000"/>
    <path d="M20 6.66667H18.3333V2.5C18.3333 2.27899 18.2455 2.06702 18.0893 1.91074C17.933 1.75446 17.721 1.66667 17.5 1.66667H13.3333V0H17.5C18.1631 0 18.7989 0.263392 19.2678 0.732233C19.7366 1.20107 20 1.83696 20 2.5V6.66667Z" fill="#000"/>
    <path d="M5.8467 8.98663C5.7768 8.7245 5.57583 8.55266 5.20594 8.54974C4.81566 8.55266 4.53896 8.76236 4.53605 9.0274C4.53896 9.23711 4.70789 9.37982 5.07779 9.47011L5.54962 9.58661C6.11466 9.72059 6.39135 10.0031 6.39426 10.4429C6.39135 10.9905 5.94573 11.3953 5.15351 11.3924C4.44285 11.3953 4.02053 11.0778 3.93607 10.5012H4.46033C4.51858 10.8099 4.74284 10.9584 5.14186 10.9555C5.59331 10.9584 5.87583 10.7691 5.87583 10.472C5.87583 10.2478 5.71564 10.1021 5.35739 10.0177L4.87973 9.907C4.32926 9.77884 4.03509 9.47885 4.03509 9.05653C4.03509 8.51479 4.50984 8.12451 5.20594 8.12451C5.86126 8.12451 6.27193 8.47402 6.33601 8.98663H5.8467Z" fill="#000"/>
    <path d="M8.33985 11.3924C7.44278 11.3953 6.89522 10.7109 6.89522 9.76137C6.89522 8.80022 7.46899 8.12451 8.3282 8.12451C9.001 8.12451 9.50778 8.52353 9.58642 9.12061H9.08546C9.01265 8.83226 8.76217 8.56722 8.33985 8.56722C7.77481 8.56722 7.39909 9.03323 7.39618 9.74389C7.39909 10.4749 7.76608 10.9439 8.33985 10.9439C8.71266 10.9439 8.99809 10.7429 9.08546 10.3963H9.58642C9.50778 10.9613 9.04177 11.3953 8.33985 11.3924Z" fill="#000"/>
    <path d="M10.0524 10.4313C10.0524 9.70603 10.6932 9.54001 11.2408 9.49924C11.4446 9.48467 11.9543 9.45555 12.097 9.45264V9.19633C12.097 8.7944 11.8582 8.56139 11.3806 8.56139C10.9815 8.56139 10.7398 8.74489 10.6699 8.98663H10.1456C10.2097 8.47693 10.7048 8.12451 11.4039 8.12451C11.8174 8.12451 12.5951 8.24684 12.5922 9.24293V11.3283H12.097V10.8973H12.0737C11.9689 11.1099 11.6805 11.4011 11.1301 11.404C10.5301 11.4011 10.0524 11.0487 10.0524 10.4313ZM10.5534 10.4546C10.5563 10.7895 10.833 10.9584 11.2175 10.9555C11.7825 10.9584 12.097 10.5798 12.097 10.1808V9.86331C11.9485 9.87204 11.4505 9.90991 11.299 9.91865C10.8446 9.94777 10.5563 10.108 10.5534 10.4546Z" fill="#000"/>
    <path d="M13.897 9.42934V11.3283H13.396V8.16529H13.8795V8.66042H13.9203C14.0688 8.33713 14.3659 8.12451 14.8465 8.12451C15.4873 8.12451 15.9154 8.51479 15.9125 9.31866V11.3283H15.4115V9.35361C15.4115 8.8643 15.1436 8.57305 14.695 8.57305C14.2349 8.57305 13.897 8.88178 13.897 9.42934Z" fill="#000"/>
</svg>
