<svg width="#f00" height="#ff0" viewBox="0 0 20 20" fill="none"
    xmlns="http://www.w3.org/2000/svg">
    <path d="M18.3309 0H13.3422V1.66289H17.1553L11.4748 7.3434C8.40047 4.9184 3.94243 5.44477 1.51742 8.51906C-0.907575 11.5934 -0.381169 16.0514 2.69313 18.4764C5.76743 20.9014 10.2255 20.375 12.6505 17.3007C14.6815 14.7259 14.6815 11.094 12.6505 8.5191L18.3309 2.83859V6.65164H19.9938V1.66289C19.9938 0.744492 19.2493 0 18.3309 0ZM7.10633 18.292C4.12153 18.292 1.70188 15.8723 1.70188 12.8875C1.70188 9.90273 4.12153 7.48309 7.10633 7.48309C10.0911 7.48309 12.5108 9.90273 12.5108 12.8875C12.5071 15.8708 10.0896 18.2883 7.10633 18.292Z" fill="#000"/>
</svg>
