<svg width="#f00" height="#ff0" viewBox="0 0 20 20" fill="none"
    xmlns="http://www.w3.org/2000/svg">
    <path d="M9.10917 2.29186C8.9303 1.63376 8.53986 1.05279 7.99806 0.6386C7.45627 0.224407 6.79323 0 6.11125 0C5.42927 0 4.76623 0.224407 4.22444 0.6386C3.68264 1.05279 3.2922 1.63376 3.11333 2.29186H0V3.95851H3.11333C3.2922 4.61661 3.68264 5.19757 4.22444 5.61177C4.76623 6.02596 5.42927 6.25037 6.11125 6.25037C6.79323 6.25037 7.45627 6.02596 7.99806 5.61177C8.53986 5.19757 8.9303 4.61661 9.10917 3.95851H20V2.29186H9.10917ZM6.11083 4.5835C5.8224 4.5835 5.54045 4.49797 5.30063 4.33773C5.0608 4.17749 4.87389 3.94973 4.76351 3.68326C4.65313 3.41678 4.62425 3.12356 4.68052 2.84068C4.73679 2.55779 4.87568 2.29795 5.07964 2.094C5.28359 1.89005 5.54344 1.75116 5.82633 1.69489C6.10922 1.63862 6.40244 1.6675 6.66891 1.77787C6.93539 1.88825 7.16315 2.07517 7.32339 2.31498C7.48364 2.5548 7.56917 2.83675 7.56917 3.12518C7.56851 3.51175 7.41465 3.88229 7.1413 4.15564C6.86795 4.42898 6.4974 4.58284 6.11083 4.5835Z" fill="#000"/>
    <path d="M13.8892 6.875C13.2079 6.87744 12.5461 7.10275 12.0049 7.51653C11.4636 7.93032 11.0727 8.50984 10.8917 9.16664H0V10.8333H10.8917C11.0702 11.4915 11.4605 12.0727 12.0023 12.4871C12.544 12.9014 13.2071 13.126 13.8892 13.126C14.5712 13.126 15.2343 12.9014 15.7761 12.4871C16.3178 12.0727 16.7081 11.4915 16.8867 10.8333H20V9.16664H16.8867C16.7057 8.50984 16.3147 7.93032 15.7735 7.51653C15.2322 7.10275 14.5705 6.87744 13.8892 6.875ZM13.8892 11.4583C13.6007 11.4583 13.3188 11.3728 13.079 11.2125C12.8391 11.0523 12.6522 10.8245 12.5418 10.558C12.4315 10.2916 12.4026 9.99835 12.4589 9.71546C12.5151 9.43258 12.654 9.17273 12.858 8.96878C13.0619 8.76483 13.3218 8.62594 13.6047 8.56967C13.8875 8.5134 14.1808 8.54228 14.4472 8.65266C14.7137 8.76303 14.9415 8.94995 15.1017 9.18977C15.262 9.42959 15.3475 9.71154 15.3475 9.99997C15.3471 10.3866 15.1933 10.7573 14.9199 11.0307C14.6465 11.3041 14.2758 11.4578 13.8892 11.4583Z" fill="#000"/>
    <path d="M6.11083 13.75C5.42912 13.7519 4.76677 13.977 4.22503 14.3908C3.68329 14.8046 3.29195 15.3844 3.11083 16.0416H0V17.7083H3.11333C3.2922 18.3664 3.68264 18.9474 4.22444 19.3615C4.76623 19.7757 5.42927 20.0001 6.11125 20.0001C6.79323 20.0001 7.45627 19.7757 7.99806 19.3615C8.53986 18.9474 8.9303 18.3664 9.10917 17.7083H20V16.0416H9.10917C8.92812 15.3847 8.53703 14.8051 7.99563 14.3913C7.45423 13.9775 6.79226 13.7523 6.11083 13.75ZM6.11083 18.3333C5.8224 18.3333 5.54045 18.2478 5.30063 18.0875C5.0608 17.9273 4.87389 17.6995 4.76351 17.433C4.65313 17.1666 4.62425 16.8733 4.68052 16.5905C4.73679 16.3076 4.87568 16.0477 5.07964 15.8438C5.28359 15.6398 5.54344 15.5009 5.82633 15.4447C6.10922 15.3884 6.40244 15.4173 6.66891 15.5277C6.93539 15.638 7.16315 15.8249 7.32339 16.0648C7.48364 16.3046 7.56917 16.5865 7.56917 16.875C7.56851 17.2615 7.41465 17.6321 7.1413 17.9054C6.86795 18.1788 6.4974 18.3326 6.11083 18.3333Z" fill="#000"/>
</svg>
