<svg width="#f00" height="#ff0" viewBox="0 0 125 125" fill="none"
    xmlns="http://www.w3.org/2000/svg">
    <path d="M89.5242 7C83.8939 7.08757 78.3865 8.65927 73.558 11.5564C68.7295 14.4534 64.751 18.5733 62.0242 23.5C59.2974 18.5733 55.3189 14.4534 50.4904 11.5564C45.6619 8.65927 40.1545 7.08757 34.5242 7C25.5489 7.38995 17.0927 11.3163 11.0031 17.9212C4.9135 24.5261 1.68545 33.2726 2.02421 42.25C2.02421 76.125 56.8042 115.25 59.1342 116.91L62.0242 118.955L64.9142 116.91C67.2442 115.26 122.024 76.125 122.024 42.25C122.363 33.2726 119.135 24.5261 113.045 17.9212C106.956 11.3163 98.4995 7.38995 89.5242 7Z" fill="#000"/>
</svg>
