<svg width="#f00" height="#ff0" viewBox="0 0 40 40" fill="none"
  xmlns="http://www.w3.org/2000/svg">
  <path d="M20 11.6667C15.405 11.6667 11.6667 15.405 11.6667 20C11.6667 24.595 15.405 28.3333 20 28.3333C24.595 28.3333 28.3333 24.595 28.3333 20C28.3333 15.405 24.595 11.6667 20 11.6667ZM20 25C17.2433 25 15 22.7567 15 20C15 17.2433 17.2433 15 20 15C22.7567 15 25 17.2433 25 20C25 22.7567 22.7567 25 20 25ZM38.3333 18.3333H36.5833C35.7983 10.4717 29.5283 4.2 21.6667 3.41667V1.66667C21.6667 0.745 20.92 0 20 0C19.08 0 18.3333 0.745 18.3333 1.66667V3.41667C10.4717 4.2 4.2 10.4717 3.41667 18.3333H1.66667C0.746667 18.3333 0 19.0783 0 20C0 20.9217 0.746667 21.6667 1.66667 21.6667H3.41667C4.20167 29.5283 10.4717 35.8 18.3333 36.5833V38.3333C18.3333 39.255 19.08 40 20 40C20.92 40 21.6667 39.255 21.6667 38.3333V36.5833C29.5283 35.7983 35.8 29.5283 36.5833 21.6667H38.3333C39.2533 21.6667 40 20.9217 40 20C40 19.0783 39.2533 18.3333 38.3333 18.3333ZM20 33.3333C12.6483 33.3333 6.66667 27.3517 6.66667 20C6.66667 12.6483 12.6483 6.66667 20 6.66667C27.3517 6.66667 33.3333 12.6483 33.3333 20C33.3333 27.3517 27.3517 33.3333 20 33.3333Z" fill="#000"/>
</svg>
