<svg width="#f00" height="#ff0" viewBox="0 0 20 20" fill="none"
    xmlns="http://www.w3.org/2000/svg">
    <path d="M8.875 1.5H11.125V12.5H8.875V1.5ZM10 18.5C9.70333 18.5 9.41332 18.412 9.16665 18.2472C8.91997 18.0824 8.72771 17.8481 8.61418 17.574C8.50065 17.2999 8.47094 16.9983 8.52882 16.7074C8.5867 16.4164 8.72956 16.1491 8.93934 15.9393C9.14912 15.7296 9.41639 15.5867 9.70736 15.5288C9.99834 15.4709 10.2999 15.5007 10.574 15.6142C10.8481 15.7277 11.0824 15.92 11.2472 16.1666C11.412 16.4133 11.5 16.7033 11.5 17C11.5 17.3978 11.342 17.7794 11.0607 18.0607C10.7794 18.342 10.3978 18.5 10 18.5Z" fill="#000"/>
</svg>
