<svg width="#f00" height="#ff0" viewBox="0 0 20 20" fill="none"
    xmlns="http://www.w3.org/2000/svg">
    <path d="M18.4211 8.42105H11.5789V1.57895C11.5789 0.715789 10.8632 0 10 0C9.13684 0 8.42105 0.715789 8.42105 1.57895V8.42105H1.57895C0.715789 8.42105 0 9.13684 0 10C0 10.8632 0.715789 11.5789 1.57895 11.5789H8.42105V18.4211C8.42105 19.2842 9.13684 20 10 20C10.8632 20 11.5789 19.2842 11.5789 18.4211V11.5789H18.4211C19.2842 11.5789 20 10.8632 20 10C20 9.13684 19.2842 8.42105 18.4211 8.42105Z" fill="#000"/>
</svg>
