<svg width="#f00" height="#ff0" viewBox="0 0 20 20" fill="none"
    xmlns="http://www.w3.org/2000/svg">
    <path d="M7.5 17.5L17.5 17.5C18.163 17.5 18.7989 17.2366 19.2678 16.7678C19.7366 16.2989 20 15.663 20 15L20 11.6667L19.1667 11.6667C18.7246 11.6667 18.3007 11.4911 17.9882 11.1785C17.6756 10.866 17.5 10.442 17.5 10C17.5 9.55797 17.6756 9.13405 17.9882 8.82149C18.3007 8.50893 18.7246 8.33333 19.1667 8.33333L20 8.33333L20 5C20 4.33696 19.7366 3.70107 19.2678 3.23223C18.7989 2.76339 18.163 2.5 17.5 2.5L7.5 2.5L7.5 5.83333L5.83333 5.83333L5.83333 2.5L1.90735e-06 2.5L1.65237e-06 8.33333L0.833335 8.33333C1.27536 8.33333 1.69929 8.50893 2.01185 8.82149C2.32441 9.13405 2.5 9.55797 2.5 10C2.5 10.442 2.32441 10.8659 2.01185 11.1785C1.69929 11.4911 1.27536 11.6667 0.833335 11.6667L1.50666e-06 11.6667L1.25168e-06 17.5L5.83333 17.5L5.83333 14.1667L7.5 14.1667L7.5 17.5ZM5.83333 11.6667L5.83333 8.33333L7.5 8.33333L7.5 11.6667L5.83333 11.6667Z" fill="#000"/>
</svg>
