<svg width="#f00" height="#ff0" viewBox="0 0 20 20" fill="none"
    xmlns="http://www.w3.org/2000/svg">
    <path d="M16.3958 2.29855C15.34 1.41993 14.1136 0.769522 12.794 0.388304C11.4744 0.00708486 10.0901 -0.0966776 8.72835 0.0835544C6.20923 0.410819 3.90908 1.68453 2.29495 3.64606C0.68081 5.60759 -0.126318 8.1099 0.0374492 10.6449C0.201217 13.1799 1.3236 15.5576 3.17671 17.2951C5.02982 19.0326 7.47473 19.9998 10.015 20.0002H15.8333C16.938 19.9989 17.997 19.5595 18.7782 18.7784C19.5593 17.9973 19.9987 16.9382 20 15.8336V9.42439V9.37189C19.9118 8.00976 19.5467 6.67993 18.927 5.46373C18.3073 4.24753 17.446 3.17052 16.3958 2.29855ZM6.66668 5.83355H10C10.221 5.83355 10.433 5.92135 10.5893 6.07763C10.7455 6.23391 10.8333 6.44587 10.8333 6.66689C10.8333 6.8879 10.7455 7.09986 10.5893 7.25614C10.433 7.41242 10.221 7.50022 10 7.50022H6.66668C6.44567 7.50022 6.2337 7.41242 6.07742 7.25614C5.92114 7.09986 5.83335 6.8879 5.83335 6.66689C5.83335 6.44587 5.92114 6.23391 6.07742 6.07763C6.2337 5.92135 6.44567 5.83355 6.66668 5.83355ZM13.3333 14.1669H6.66668C6.44567 14.1669 6.2337 14.0791 6.07742 13.9228C5.92114 13.7665 5.83335 13.5546 5.83335 13.3336C5.83335 13.1125 5.92114 12.9006 6.07742 12.7443C6.2337 12.588 6.44567 12.5002 6.66668 12.5002H13.3333C13.5544 12.5002 13.7663 12.588 13.9226 12.7443C14.0789 12.9006 14.1667 13.1125 14.1667 13.3336C14.1667 13.5546 14.0789 13.7665 13.9226 13.9228C13.7663 14.0791 13.5544 14.1669 13.3333 14.1669ZM13.3333 10.8336H6.66668C6.44567 10.8336 6.2337 10.7458 6.07742 10.5895C5.92114 10.4332 5.83335 10.2212 5.83335 10.0002C5.83335 9.77921 5.92114 9.56725 6.07742 9.41097C6.2337 9.25469 6.44567 9.16689 6.66668 9.16689H13.3333C13.5544 9.16689 13.7663 9.25469 13.9226 9.41097C14.0789 9.56725 14.1667 9.77921 14.1667 10.0002C14.1667 10.2212 14.0789 10.4332 13.9226 10.5895C13.7663 10.7458 13.5544 10.8336 13.3333 10.8336Z" fill="#000"/>
</svg>
