<svg width="#f00" height="#ff0" viewBox="0 0 20 20" fill="none" xmlns="http://www.w3.org/2000/svg">
  <path d="M8.82556 7.49999L14.7253 1.60086C15.0916 1.23463 15.0916 0.640865 14.7253 0.274669C14.3591 -0.0915564 13.7653 -0.0915564 13.3991 0.274669L7.49999 6.17441L1.60086 0.274669C1.23463 -0.0915564 0.640865 -0.0915564 0.274669 0.274669C-0.0915271 0.640895 -0.0915564 1.23466 0.274669 1.60086L6.17441 7.49999L0.274669 13.3991C-0.0915564 13.7654 -0.0915564 14.3591 0.274669 14.7253C0.640895 15.0915 1.23466 15.0916 1.60086 14.7253L7.49999 8.82556L13.3991 14.7253C13.7653 15.0916 14.3591 15.0916 14.7253 14.7253C15.0915 14.3591 15.0915 13.7653 14.7253 13.3991L8.82556 7.49999Z" fill="#B5B5B5"/>
</svg>
