<svg width="#f00" height="#ff0" viewBox="0 0 20 20" fill="none"
    xmlns="http://www.w3.org/2000/svg">
    <path fill-rule="evenodd" clip-rule="evenodd" d="M10 0C4.4775 0 0 4.4775 0 10C0 15.5225 4.4775 20 10 20C15.5225 20 20 15.5225 20 10C20 4.4775 15.5225 0 10 0ZM14.635 6.80083C14.485 8.38167 13.8333 12.2192 13.5025 13.99C13.3625 14.74 13.0858 14.9908 12.8192 15.015C12.2383 15.0683 11.7975 14.6308 11.235 14.2625C10.355 13.6858 9.8575 13.3267 9.00333 12.7633C8.01583 12.1125 8.65583 11.755 9.21833 11.1708C9.36583 11.0175 11.9242 8.69 11.9742 8.47917C11.98 8.4525 11.9867 8.35417 11.9275 8.3025C11.8683 8.25083 11.7825 8.26833 11.7208 8.2825C11.6325 8.3025 10.2267 9.23167 7.5025 11.07C7.10333 11.3442 6.74167 11.4775 6.4175 11.4708C6.06083 11.4633 5.37417 11.2692 4.86333 11.1025C4.2375 10.8992 3.73917 10.7908 3.7825 10.4458C3.805 10.2658 4.0525 10.0817 4.52583 9.89333C7.44083 8.62333 9.385 7.78583 10.3575 7.38083C13.135 6.22583 13.7117 6.025 14.0883 6.01833C14.56 6.01167 14.6733 6.40083 14.635 6.80083Z" fill="#000"/>
</svg>
