<svg width="#f00" height="#ff0" viewBox="0 0 125 125" fill="none"
    xmlns="http://www.w3.org/2000/svg">
    <path fill-rule="evenodd" clip-rule="evenodd" d="M0 59.5588V63.3976C3.35288 62.6976 6.82764 62.3297 10.3883 62.3297C38.3224 62.3297 60.9674 84.9747 60.9674 112.909C60.9674 117.076 60.4634 121.126 59.513 125H64.1247C63.1744 121.126 62.6704 117.076 62.6704 112.909C62.6704 84.9747 85.3154 62.3297 113.249 62.3297C117.295 62.3297 121.229 62.8046 125 63.7018V59.2546C121.229 60.1518 117.295 60.6267 113.249 60.6267C85.3154 60.6267 62.6704 37.9817 62.6704 10.0477C62.6704 6.60742 63.0139 3.24739 63.6684 0H59.9694C60.6239 3.24739 60.9674 6.60742 60.9674 10.0477C60.9674 37.9817 38.3224 60.6267 10.3883 60.6267C6.82764 60.6267 3.35288 60.2587 0 59.5588Z" fill="#000"/>
</svg>
