<svg width="20" height="20" viewBox="0 0 20 20" fill="none" xmlns="http://www.w3.org/2000/svg">
  <g clip-path="url(#clip0_2753_978)">
    <path d="M19.1667 13.3333C19.0377 13.3333 18.9104 13.3034 18.795 13.2458L17.1283 12.4125C16.9305 12.3137 16.7801 12.1404 16.7101 11.9307C16.64 11.7209 16.6562 11.492 16.755 11.2942C16.8538 11.0964 17.0271 10.9459 17.2368 10.8759C17.4466 10.8059 17.6755 10.822 17.8733 10.9208L19.54 11.7542C19.7082 11.838 19.8432 11.9763 19.9229 12.1465C20.0026 12.3167 20.0225 12.5088 19.9793 12.6917C19.936 12.8746 19.8322 13.0376 19.6847 13.154C19.5372 13.2705 19.3546 13.3337 19.1667 13.3333ZM17.8725 5.75L19.5392 4.91667C19.737 4.81787 19.8874 4.64455 19.9574 4.43482C20.0275 4.22509 20.0113 3.99614 19.9125 3.79833C19.8137 3.60053 19.6404 3.45007 19.4307 3.38005C19.2209 3.31004 18.992 3.32621 18.7942 3.425L17.1275 4.25833C16.9297 4.35713 16.7792 4.53045 16.7092 4.74018C16.6392 4.94991 16.6554 5.17886 16.7542 5.37667C16.853 5.57447 17.0263 5.72493 17.236 5.79495C17.4457 5.86496 17.6747 5.84879 17.8725 5.75ZM20 8.33333C20 8.11232 19.9122 7.90036 19.7559 7.74408C19.5996 7.5878 19.3877 7.5 19.1667 7.5H17.5C17.279 7.5 17.067 7.5878 16.9107 7.74408C16.7545 7.90036 16.6667 8.11232 16.6667 8.33333C16.6667 8.55435 16.7545 8.76631 16.9107 8.92259C17.067 9.07887 17.279 9.16667 17.5 9.16667H19.1667C19.3877 9.16667 19.5996 9.07887 19.7559 8.92259C19.9122 8.76631 20 8.55435 20 8.33333ZM15 15.8333V0.833333C15 0.61232 14.9122 0.400358 14.7559 0.244078C14.5996 0.0877974 14.3877 0 14.1667 0C13.9457 0 13.7337 0.0877974 13.5774 0.244078C13.4211 0.400358 13.3333 0.61232 13.3333 0.833333C13.3333 3.29083 11.1808 4.16667 9.16667 4.16667H3.33333C2.44928 4.16667 1.60143 4.51786 0.976311 5.14298C0.35119 5.7681 0 6.61594 0 7.5L0 9.16667C0 10.0507 0.35119 10.8986 0.976311 11.5237C1.60143 12.1488 2.44928 12.5 3.33333 12.5H9.16667C11.1808 12.5 13.3333 13.3758 13.3333 15.8333C13.3333 16.0543 13.4211 16.2663 13.5774 16.4226C13.7337 16.5789 13.9457 16.6667 14.1667 16.6667C14.3877 16.6667 14.5996 16.5789 14.7559 16.4226C14.9122 16.2663 15 16.0543 15 15.8333ZM6.82167 14.1667H3.33333C2.94535 14.1651 2.55886 14.1184 2.18167 14.0275L4.265 18.6792C4.43997 19.0723 4.72515 19.4063 5.08603 19.6408C5.44691 19.8752 5.868 20 6.29833 20C6.64071 19.9995 6.97753 19.9134 7.2781 19.7495C7.57866 19.5855 7.83342 19.3489 8.01915 19.0613C8.20487 18.7737 8.31567 18.4441 8.34144 18.1027C8.36721 17.7613 8.30712 17.4189 8.16667 17.1067L6.82167 14.1667Z" fill="#9B84F8"/>
  </g>
  <defs>
  <clipPath id="clip0_2753_978">
    <rect width="20" height="20" fill="white"/>
  </clipPath>
  </defs>
</svg>
