<svg width="#f00" height="#ff0" viewBox="0 0 125 125" fill="none"
    xmlns="http://www.w3.org/2000/svg">
    <path d="M62 108.833C55.6597 108.833 49.7014 107.629 44.125 105.222C38.5486 102.814 33.6979 99.5489 29.5729 95.4269C25.4479 91.3019 22.1831 86.4512 19.7783 80.8748C17.3736 75.2984 16.1697 69.3401 16.1667 62.9998C16.1667 56.6596 17.3706 50.7012 19.7783 45.1248C22.1861 39.5485 25.451 34.6978 29.5729 30.5728C33.6979 26.4478 38.5486 23.1829 44.125 20.7782C49.7014 18.3734 55.6597 17.1696 62 17.1665C68.3403 17.1665 74.2986 18.3704 79.875 20.7782C85.4514 23.1859 90.3021 26.4508 94.4271 30.5728C98.5521 34.6978 101.818 39.5485 104.226 45.1248C106.634 50.7012 107.836 56.6596 107.833 62.9998C107.833 69.3401 106.629 75.2984 104.222 80.8748C101.814 86.4512 98.549 91.3019 94.4271 95.4269C90.3021 99.5519 85.4514 102.818 79.875 105.226C74.2986 107.634 68.3403 108.836 62 108.833Z" fill="#000"/>
</svg>
