<svg width="#f00" height="#ff0" viewBox="0 0 20 20" fill="none"
    xmlns="http://www.w3.org/2000/svg">
    <path d="M10 0C4.48583 0 0 4.48583 0 10C0 15.5142 4.48583 20 10 20C15.5142 20 20 15.5142 20 10C20 4.48583 15.5142 0 10 0ZM10 17.5C5.865 17.5 2.5 14.135 2.5 10C2.5 5.865 5.865 2.5 10 2.5C14.135 2.5 17.5 5.865 17.5 10C17.5 14.135 14.135 17.5 10 17.5ZM13.3333 8.33333V11.6667C13.3333 12.5875 12.5875 13.3333 11.6667 13.3333H8.33333C7.4125 13.3333 6.66667 12.5875 6.66667 11.6667V8.33333C6.66667 7.4125 7.4125 6.66667 8.33333 6.66667H11.6667C12.5875 6.66667 13.3333 7.4125 13.3333 8.33333Z" fill="#000"/>
</svg>
